<svg xmlns="http://www.w3.org/2000/svg" width="1986.909" height="1489.455" xmlns:v="https://vecta.io/nano"><style><![CDATA[.B{fill-opacity:.992}.C{fill:#7876a1}.D{fill:#e9afaf}]]></style><path d="M2037.243 788.485l-808.914-1.314 2 375.071-536.257-.171.343 276.071-797.414-4.728 176 184 1944-54 41-787z" stroke="#6f6f6f" stroke-width="6.293" stroke-linejoin="round" stroke-opacity="0" class="C"/><path d="M1336.321 740.603l9.982 24.852-65.283 21.516-22.499-7.615 1.647-4.335 28.57-10.756 8.663-4.444-6.309-16.812 29.294-8.59 6.866.495z" class="B D"/><path d="M1598.861 742.773l8.91 13.869c4.732 7.365 7.347 21.464.424 26.394-5.129 3.652-17.453 5.842-26.161 6.683-16.737 1.616-40.888 2.779-58.199 3.471-11.838.473-13.543-4.716-3.803-11.462l25.416-17.605a76.9 76.9 0 0 0 13.8-12.252l5.075-5.735z"/><g class="D"><path d="M1592.069 726.639l6.757 16.636-20.885 1.037c-4.304.214-10.084 3.026-13.032 6.169-2.86 3.049-6.437 6.686-9.518 9.285-6.333 5.342-25.476 15.037-25.476 15.037l14.182-11.055c5.211-4.062 9.806-8.859 13.64-14.24l3.647-5.118-3.2-8.057 30.011-14.324z" class="B"/><path d="M1106.228 178.808c-11.707 28.805 29.072 97.554 61.83 106.126s62.753-72.904 62.753-72.904l-57.216-59.061s-55.659-2.966-67.367 25.839zm-97.866 244.229c-10.135-2.089-33.566 9.699-43.371 14.979-2.469 1.329-2.593 3.832.023 4.846a20.49 20.49 0 0 0 4.491 1.185c4.761.68 16.834-3.141 18.769-.296 4.683 6.884-13.762 18.114-28.906 25.846-9.821 5.014-9.08 8.371 2.022 7.84 15.23-.728 34.853-2.239 42.877-5.319 13.955-5.356 31.777-26.481 31.777-26.481s-14.695-19.923-27.684-22.6z"/><path d="M1187.437 257.249l21.457 18.265 33.913-27.494-35.068-20.302z"/></g><path d="M1246.725 242.466L1007.221 422l28.936 27.1 174.678-95.375s2.588 12.998 11.723 23.142 47.006 30.366 47.006 30.366l29.364 49.267 86.462-79.936-43.72-33.606-15.153-12.456s-24.922-49.589-38.844-67.504c-5.131-6.603-17.93-16.472-17.93-16.472z" class="C"/><path d="M1395.536 400.749c39.017 59.363 53.007 137.325 105.182 187.351 9.849 9.214 18.624 18.985 32.845 39.328 18.872 26.997 61.693 100.397 61.693 100.397l-38.682 14.725-128.277-144.777-72.904-85.824zm-293.023-206.897c21.177 6.937 43.23 4.04 65.03 4.894l68.82 108.935 53.8-78.259s.213-16.258-17.061-37.372-23.944-50.242-58.119-66.015-67.81-10.019-88.979 7.784c-19.133 15.707-23.492 38.544-23.492 60.034z"/><path d="M1382.386 378.371c-.308 2.466 22.743 8.072 29.61 44.32 4.616 24.367-44.133 81.777-76.587 116.794-15.027 16.214-28.835 46.344-22.25 66.067 2.784 8.339 6.232 19.976 10.433 36.295 5.28 20.512 8.908 71.143 17.133 106.051l-44.412 10.338-46.282-159.741a67.67 67.67 0 0 1 3.769-47.647l45.992-97.727z" fill="#333"/><path d="M1338.818 791.91l-50.93 4.672a103.64 103.64 0 0 1-32.382-2.132l-6.676-1.514a6.69 6.69 0 0 1-.954-12.76l51.43-20.08c.16.112-36.598 12.121-24.944 13.45 10.365 1.182 61.134-7.964 70.692-12.671l4.425 15.465a12.25 12.25 0 0 1-10.659 15.57z" fill="#1a1a1a"/><path d="M648.627 481.576c13.092 3.273 14.635-36.304-10.441-44.373s-54.161 32.627-54.161 32.627-21.314 12.252-30.669 26.102-16.203 34.876-12.398 51.551 35.237 37.195 35.237 37.195l38.5 2.61 43.72-69.822zm-50.246 903.771l74.793 42.346c7.706 4.363 11.579 16.127 3.779 18.944-23.59 8.522-83.167-.95-125.047-1.573-8.931-.133-15.479-6.893-14.627-15.787l3.948-41.208zm266.89-253.839l68.983 23.166c10.194 3.423 11.096 11.244.815 14.226-30.791 8.932-77.251 3.999-114.082 5.322-8.351.3-14.138-5.702-12.956-13.976l3.733-26.128z" class="B"/><path d="M696.915 871.144l192.741 42.268a31.015 31.015 57.495 0 1 23.622 37.072l-40.828 182.33-61.599 3.352 27.015-169.097-167.703-10.441z" class="B"/><path d="M704.441 877.61l-47.983 229.754-51.281 282.327-65.32 8.641 29.16-304.672 2.61-202.288 125.941-11.746z" fill="#333"/><g class="D B"><use href="#B"/><use href="#B"/><path d="M883.216 495.606l41.665-37.642a24.755 24.755 154.984 0 1 13.178-6.149l32.737-4.563a3.755 3.755 66.732 0 1 2.861 6.654l-27.616 22.046a3.32 3.32 130.337 0 0-.825.971l-6.634 11.833a32.184 32.184 137.299 0 1-14.636 13.506l-20.814 9.563a7.983 7.983 14.385 0 1-9.745-2.499z"/></g><path d="M584.678 643.407c17.236-15.587 79.61-26.102 79.61-26.102L677.992 616l201.636-124.636 25.449 26.102-163.136 151.39-28.712 30.669 1.958 174.229s-2.439 6.494-26.439 13.77-119.078 7.111-119.078 7.111l18.924-85.483s-24.268-92.296-22.549-116.823 1.398-33.335 18.634-48.922z" class="B C"/><defs ><path id="B" d="M661.666 486.348l8.831 14.381a94.069 94.069 68.402 0 1 11.973 30.242l9.062 43.978a15.362 15.362 117.786 0 1-9.097 17.263l-30.219 12.694-4.242 21.534-61.992 20.229c4.459-14.465 9.921-21.84 12.589-36.305 0 0 2.235-13.423-4.423-12.413s-15.452-2.575-20.238-8.706-11.915-17.956 0-26.754 25.449 3.589 25.449 3.589l-9.653-27.782a18.391 18.391 102.512 0 1 4.184-18.854l33.021-33.974a24.082 24.082 155.211 0 1 15.688-7.245l2.976-.196a17.531 17.531 27.342 0 1 16.09 8.319z"/></defs></svg>