<?xml version="1.0" encoding="UTF-8" standalone="no"?>
<!-- Created with Inkscape (http://www.inkscape.org/) -->

<svg
   version="1.1"
   id="svg1"
   width="1986.9091"
   height="1489.4545"
   viewBox="0 0 1986.9091 1489.4545"
   xmlns="http://www.w3.org/2000/svg"
   xmlns:svg="http://www.w3.org/2000/svg">
  <defs
     id="defs1" />
  <g
     id="g12"
     style="display:inline">
    <g
       id="layer10"
       style="display:inline">
      <path
         style="display:inline;opacity:1;fill:#7876a1;fill-opacity:1;stroke:#6f6f6f;stroke-width:6.29291;stroke-linecap:round;stroke-linejoin:round;stroke-opacity:0"
         d="m 2037.2426,788.48528 -808.9142,-1.31371 2,375.07103 -536.25733,-0.1715 0.34314,276.071 -797.41421,-4.7279 176,184 1944,-54 41,-786.99999 z"
         id="path27" />
      <path
         style="display:none;opacity:1;fill:#ffffff;fill-opacity:0;stroke:#6f6f6f;stroke-width:6.29291;stroke-linecap:round;stroke-linejoin:round;stroke-opacity:1"
         d="m 1246.7491,707.81386 200.255,139.34797 544.4722,1.84568"
         id="path22" />
      <path
         style="display:none;opacity:1;fill:none;fill-opacity:0.992157;stroke:#6f6f6f;stroke-width:6.29291;stroke-linecap:round;stroke-linejoin:round;stroke-opacity:1"
         d="m 1447.9269,849.93034 -0.4228,399.89596 -201.4539,-145.68"
         id="path23" />
      <path
         style="display:none;opacity:1;fill:none;fill-opacity:0.992157;stroke:#6f6f6f;stroke-width:6.29291;stroke-linecap:round;stroke-linejoin:round;stroke-opacity:1"
         d="m 1447.004,1250.2821 -575.92531,2.6102 -180.79036,-144.0988"
         id="path24" />
      <path
         style="display:none;opacity:1;fill:none;fill-opacity:0.992157;stroke:#6f6f6f;stroke-width:6.29291;stroke-linecap:round;stroke-linejoin:round;stroke-opacity:1"
         d="m 871.84319,1253.2745 0.38225,306.9215 -181.32335,-125.795"
         id="path25" />
      <path
         style="display:inline;opacity:1;fill:#7876a1;fill-opacity:1;stroke:#6f6f6f;stroke-width:6.29291;stroke-linecap:round;stroke-linejoin:round;stroke-opacity:0"
         d="m 2037.2426,788.48528 -808.9142,-1.31371 2,375.07103 -536.25733,-0.1715 0.34314,276.071 L -103,1433.4142 9.0508496,1482.9905 2017,1563.4142 2058,776.41421 Z"
         id="path12" />
    </g>
  </g>
  <g
     id="g2">
    <path
       style="opacity:1;fill:#501616;fill-opacity:1;stroke:none;stroke-width:6.29291;stroke-linecap:round;stroke-linejoin:round"
       d="m 1034.8235,407.67843 c -14.0537,-3.00585 -46.54305,13.95398 -60.13841,21.54995 -3.42285,1.91241 -3.59549,5.51323 0.0324,6.97142 1.78071,0.71574 3.88413,1.35795 6.2276,1.7053 6.60185,0.97855 23.34211,-4.51836 26.02541,-0.42569 6.4929,9.903 -19.08231,26.0595 -40.08069,37.18249 -13.61721,7.21313 -12.5897,12.04266 2.80357,11.27906 21.11819,-1.04759 48.32742,-3.22155 59.45402,-7.65213 19.3505,-7.70537 44.0625,-38.0969 44.0625,-38.0969 0,0 -20.3766,-28.6615 -38.3864,-32.5135 z"
       id="path2"
       transform="matrix(0.72118535,0,0,0.6951047,262.06285,139.65773)" />
    <path
       style="opacity:1;fill:#550000;fill-opacity:0.992157;stroke:none;stroke-width:6.29291;stroke-linecap:round;stroke-linejoin:round"
       d="m 1336.3209,740.60272 9.9815,24.85246 -65.2833,21.51563 -22.4991,-7.61497 1.6469,-4.3349 28.5702,-10.75572 8.6629,-4.44431 -1.6947,-17.7349 24.6803,-7.66684 6.8662,0.49482 z"
       id="path11" />
    <path
       style="opacity:1;fill:#550000;fill-opacity:0.992157;stroke:none;stroke-width:6.29291;stroke-linecap:round;stroke-linejoin:round"
       d="m 1654.6418,661.90286 7.7712,16.18702 -17.5803,4.31267 c -4.1852,1.02667 -13.0785,1.65502 -15.8268,4.97387 -2.6665,3.21997 -6.0114,7.07036 -8.9266,9.85461 -5.9915,5.72248 -24.4989,16.58125 -24.4989,16.58125 l 13.4721,-11.90991 c 4.9504,-4.37639 9.2399,-9.44764 12.7346,-15.05539 l 3.324,-5.33389 -3.6913,-7.84409 29.0692,-16.1496 z"
       id="path10"
       transform="rotate(3.5400992,575.95131,-318.13639)" />
    <path
       id="path3"
       style="opacity:1;fill:#550000;fill-opacity:1;stroke:none;stroke-width:6.29291;stroke-linecap:round;stroke-linejoin:round"
       d="m 1187.4372,257.24872 21.4567,18.26535 33.9134,-27.49369 -35.0677,-20.30235 z m -81.2094,-78.44091 c -11.7074,28.80529 29.0717,97.55432 61.8299,106.12593 32.7582,8.57162 62.7528,-72.9039 62.7528,-72.9039 l -57.2158,-59.06139 c 0,0 -55.6595,-2.96592 -67.3669,25.83936 z" />
  </g>
  <path
     style="opacity:1;fill:#ff00ff;fill-opacity:1;stroke:none;stroke-width:6.29291;stroke-linecap:round;stroke-linejoin:round"
     d="m 1246.7245,242.4661 -239.5039,179.53393 28.9359,27.09972 174.6782,-95.37519 c 0,0 2.5884,12.99785 11.7226,23.14206 9.1342,10.14421 47.0062,30.36642 47.0062,30.36642 l 29.3644,49.26695 86.4619,-79.93644 -43.7204,-33.60593 -15.1526,-12.45587 c 0,0 -24.9222,-49.58906 -38.8444,-67.50379 -5.1314,-6.60289 -17.9298,-16.47187 -17.9298,-16.47187 z"
     id="path5" />
  <path
     style="display:inline;opacity:1;fill:#00ff00;fill-opacity:1;stroke:none;stroke-width:6.29291;stroke-linecap:round;stroke-linejoin:round"
     d="m 1395.5364,400.74944 c 39.0172,59.363 53.007,137.32473 105.1819,187.35147 9.8485,9.21424 18.6238,18.98507 32.845,39.32835 18.8724,26.99681 61.6927,100.39722 61.6927,100.39722 l -38.6819,14.72519 -128.2772,-144.77711 -72.9038,-85.82359 z"
     id="path7" />
  <path
     id="path6"
     style="display:inline;opacity:1;fill:#00ff00;fill-opacity:1;stroke:none;stroke-width:6.29291;stroke-linecap:round;stroke-linejoin:round"
     d="m 1382.3867,378.37109 -82.5937,74.75 -45.9922,97.72657 a 67.670964,67.670964 0 0 0 -3.7696,47.64648 l 46.2833,159.74219 44.4121,-10.33789 c -8.2256,-34.90765 -11.8551,-85.53879 -17.1348,-106.05078 -4.2004,-16.31868 -7.6474,-27.9559 -10.4316,-36.29493 -6.585,-19.72325 7.2229,-49.85231 22.25,-66.0664 32.4535,-35.01708 81.2021,-92.42762 76.5859,-116.79492 -6.8671,-36.24862 -29.9176,-41.85464 -29.6094,-44.32032 z" />
  <path
     style="display:inline;opacity:1;fill:#0000ff;fill-opacity:1;stroke:none;stroke-width:6.29291;stroke-linecap:round;stroke-linejoin:round"
     d="m 1598.8608,742.77326 8.9102,13.86893 c 4.7317,7.36485 7.3474,21.46378 0.4237,26.39372 -5.1287,3.65183 -17.4526,5.84184 -26.1607,6.68255 -16.737,1.61587 -40.8875,2.77944 -58.1992,3.47117 -11.8377,0.47301 -13.5427,-4.71587 -3.8035,-11.46213 l 25.4156,-17.60477 a 76.899853,76.899853 0 0 0 13.7998,-12.25245 l 5.0751,-5.73485 z"
     id="path9" />
  <path
     style="display:inline;opacity:1;fill:#00ffff;fill-opacity:1;stroke:none;stroke-width:6.29291;stroke-linecap:round;stroke-linejoin:round"
     d="m 1102.5126,193.85169 c 21.1766,6.9371 43.2296,4.04036 65.0303,4.89377 l 68.8202,108.93451 53.7996,-78.2594 c 0,0 0.2132,-16.25819 -17.0605,-37.37245 -17.2738,-21.11426 -23.9444,-50.24154 -58.1187,-66.01476 -34.1743,-15.77322 -67.81,-10.01895 -88.9792,7.78414 -19.1335,15.70736 -23.4916,38.54381 -23.4917,60.03419 z"
     id="path4" />
  <path
     style="opacity:1;fill:#0000ff;fill-opacity:1;stroke:none;stroke-width:6.29291;stroke-linecap:round;stroke-linejoin:round"
     d="m 1338.8183,791.9095 -50.9301,4.67154 a 103.64161,103.64161 0 0 1 -32.3822,-2.13182 l -6.6765,-1.51364 a 6.691722,6.691722 0 0 1 -0.9542,-12.7596 l 51.4298,-20.07954 c 0.1597,0.11207 -36.5985,12.12086 -24.9441,13.44994 10.3653,1.18204 61.1342,-7.96376 70.6916,-12.67119 l 4.4249,15.46459 a 12.250866,12.250866 0 0 1 -10.6592,15.56972 z"
     id="path8" />
  <g
     id="layer9">
    <path
       style="opacity:1;fill:#000000;fill-opacity:0.992157;stroke:none;stroke-width:6.29291;stroke-linecap:round;stroke-linejoin:round"
       d="m 598.38134,1385.3474 74.79314,42.3461 c 7.70582,4.3629 11.57898,16.1265 3.77932,18.9439 -23.59045,8.5215 -83.16673,-0.9499 -125.04654,-1.5731 -8.93117,-0.1329 -15.47926,-6.8929 -14.62721,-15.7867 l 3.94785,-41.2081 z"
       id="path19" />
    <path
       style="opacity:1;fill:#000000;fill-opacity:0.992157;stroke:none;stroke-width:6.29291;stroke-linecap:round;stroke-linejoin:round"
       d="m 865.27116,1131.5084 68.98311,23.166 c 10.19384,3.4233 11.09593,11.2438 0.81452,14.2262 -30.79148,8.9322 -77.25081,3.9987 -114.08247,5.322 -8.35069,0.3 -14.13826,-5.7016 -12.95618,-13.9762 l 3.73255,-26.1278 z"
       id="path20" />
  </g>
  <g
     id="layer8">
    <path
       style="opacity:1;fill:#ffff00;fill-opacity:0.992157;stroke:none;stroke-width:6.29291;stroke-linecap:round;stroke-linejoin:round"
       d="m 696.91523,871.14404 192.74053,42.26765 a 31.014929,31.014929 57.495442 0 1 23.62177,37.07224 l -40.82841,182.32957 -61.59948,3.3516 27.01473,-169.09734 -167.70338,-10.44068 z"
       id="path18" />
    <path
       style="display:inline;opacity:1;fill:#ffff00;fill-opacity:1;stroke:none;stroke-width:6.29291;stroke-linecap:round;stroke-linejoin:round"
       d="m 704.44065,877.61014 -47.98304,229.75426 -51.28057,282.3268 -65.31981,8.6415 29.1597,-304.6717 2.61017,-202.28815 125.94067,-11.74576 z"
       id="path17" />
  </g>
  <g
     id="layer6"
     style="display:inline;opacity:1;fill:#ff0000">
    <path
       style="display:inline;opacity:1;fill:#ff0000;fill-opacity:0.992157;stroke:none;stroke-width:6.29291;stroke-linecap:round;stroke-linejoin:round"
       d="m 648.6271,481.57625 c 13.09154,3.27289 14.63533,-36.30439 -10.44068,-44.37288 -25.07601,-8.06848 -54.16102,32.62713 -54.16102,32.62713 0,0 -21.31419,12.2521 -30.66948,26.10169 -9.35529,13.84959 -16.20317,34.87586 -12.39831,51.55084 3.80486,16.67498 35.23729,37.19492 35.23729,37.19492 l 38.5,2.61017 43.72033,-69.82204 z"
       id="path16" />
    <path
       style="display:inline;opacity:1;fill:#99ff55;fill-opacity:0.992157;stroke:none;stroke-width:6.29291;stroke-linecap:round;stroke-linejoin:round"
       d="m 661.66643,486.34826 8.83146,14.38143 a 94.069384,94.069384 68.40181 0 1 11.97254,30.24197 l 9.06157,43.9777 a 15.362065,15.362065 117.78593 0 1 -9.09657,17.26345 l -30.21935,12.69395 -4.24152,21.5339 -61.99153,20.22881 c 4.45904,-14.46469 9.92103,-21.84019 12.58943,-36.30488 0,0 2.23506,-13.4232 -4.4233,-12.41302 -6.65836,1.01017 -15.45243,-2.57492 -20.23816,-8.70583 -4.78574,-6.13091 -11.9146,-17.95552 0,-26.75423 11.9146,-8.79872 25.44915,3.58898 25.44915,3.58898 l -9.6532,-27.78239 a 18.390649,18.390649 102.51239 0 1 4.18407,-18.85385 l 33.02121,-33.97432 a 24.081545,24.081545 155.21115 0 1 15.68842,-7.24536 l 2.97609,-0.19573 a 17.531203,17.531203 27.341893 0 1 16.08969,8.31942 z"
       id="path13" />
    <path
       style="display:inline;opacity:1;fill:#99ff55;fill-opacity:0.992157;stroke:none;stroke-width:6.29291;stroke-linecap:round;stroke-linejoin:round"
       d="m 883.21608,495.60591 41.66517,-37.64231 a 24.755468,24.755468 154.98413 0 1 13.17777,-6.14934 l 32.7367,-4.56331 a 3.7550986,3.7550986 66.731692 0 1 2.86121,6.65378 l -27.61588,22.0463 a 3.319543,3.319543 130.3371 0 0 -0.82453,0.97098 l -6.63385,11.83335 a 32.183509,32.183509 137.29919 0 1 -14.63642,13.50648 l -20.81367,9.56304 a 7.9825254,7.9825254 14.385347 0 1 -9.74517,-2.49948 z"
       id="path14" />
  </g>
  <path
     style="display:inline;opacity:1;fill:#0000ff;fill-opacity:0.992157;stroke:none;stroke-width:6.29291;stroke-linecap:round;stroke-linejoin:round"
     d="m 584.67795,643.40676 c 17.23576,-15.5875 79.61016,-26.1017 79.61016,-26.1017 l 13.70339,-1.30508 201.63559,-124.63559 25.44915,26.1017 -163.13558,151.38982 -28.71186,30.66948 1.95761,174.22882 c 0,0 -2.43912,6.49418 -26.43928,13.7704 -24.00017,7.27623 -119.07765,7.11095 -119.07765,7.11095 l 18.92373,-85.48305 c 0,0 -24.26785,-92.29582 -22.5493,-116.82346 1.71855,-24.52763 1.39828,-33.3348 18.63404,-48.92229 z"
     id="path15" />
</svg>
